<svg width="197" height="51" viewBox="0 0 197 51" fill="none" xmlns="http://www.w3.org/2000/svg">
<g clip-path="url(#clip0_1_3029)">
<path fill-rule="evenodd" clip-rule="evenodd" d="M21.6844 0.194835C21.3559 0.198877 21.0277 0.202919 20.6992 0.204222C14.2119 0.219216 8.11444 2.7119 3.43285 7.23781L3.21903 7.44707C3.18383 7.48123 3.14824 7.51486 3.1129 7.54863C2.83351 7.81486 2.56245 8.07301 2.42112 8.44315C2.40743 8.55358 2.39818 8.62776 2.40509 8.70039C2.41904 8.84902 2.50026 8.99139 2.74759 9.42502C2.86348 9.62093 2.97795 9.81768 3.091 10.0152L3.27614 10.3387C3.66426 11.0087 4.04892 11.6807 4.4301 12.3547L4.67782 12.7925L4.92241 13.2189L5.15083 13.6221C5.40637 14.0698 5.59685 14.4504 5.64744 14.9681L5.43597 15.2198C2.91108 17.4171 1.29949 21.1122 0.562334 24.2994C0.519511 24.492 0.476226 24.6844 0.432478 24.8768C0.0831977 26.1854 0.00705739 27.4419 0.00119042 28.7873L0.000408156 29.0652C-0.0134118 31.6164 0.321788 34.2286 1.30118 36.6027L1.47537 37.0019C2.65332 39.7574 4.17378 42.1919 6.3636 44.2493L6.56008 44.4334C8.04534 45.8613 9.67388 47.063 11.528 47.9649L11.7752 48.084C13.2246 48.7953 14.7028 49.3043 16.2689 49.6983L16.5991 49.7789C18.4497 50.2315 20.3018 50.2313 22.1997 50.1863C27.3972 49.974 32.5598 47.4999 36.0987 43.7234L36.2861 43.5208C40.6119 38.8458 41.8923 33.5298 41.8923 27.2236H29.7672V20.1832H25.7255V38.3057H29.7672V31.2653H37.7202L37.7157 31.2903C37.565 32.1189 37.4265 32.8808 37.1917 33.6797L37.0927 34.0032C36.8444 34.8173 36.5925 35.6175 36.2148 36.3826L36.0253 36.7411C35.0199 38.7083 33.7933 40.4445 32.1114 41.8931L31.7229 42.217C28.329 45.0522 24.2721 46.1476 19.9176 46.0473C15.9017 45.8857 11.7218 44.0713 8.94598 41.1231L8.64611 40.7828C5.41367 37.1492 4.08135 33.0524 4.17652 28.2265C4.31211 24.2026 6.0357 20.1253 8.98066 17.3379L9.298 17.0542C12.4431 14.2309 16.2252 12.4247 20.511 12.4439C20.7975 12.4472 21.084 12.4503 21.3707 12.4499C22.3618 12.4469 23.3261 12.4562 24.2966 12.6852L24.5521 12.7517C27.5316 13.4285 30.6951 14.9134 32.8015 17.1872L33.0267 17.4453C34.8236 19.4443 36.3244 21.6827 37.0684 24.2901L37.3291 25.2679H41.5012C41.5012 21.9545 39.0166 17.9594 36.8565 15.5874C36.726 15.4585 36.6643 15.3976 36.6069 15.3329C36.5554 15.2749 36.5075 15.214 36.4165 15.0985C36.2982 14.7886 36.2642 14.6375 36.378 14.322L36.532 14.052L36.7052 13.7429L36.8972 13.4118C37.0982 13.0549 37.3006 12.6987 37.5043 12.3433L37.7202 11.9695L37.9381 11.5922L38.1552 11.2163C38.2952 10.973 38.4355 10.7297 38.5758 10.4864C38.9017 9.93102 39.2166 9.38108 39.4838 8.79465C39.517 8.60886 39.5323 8.52307 39.5187 8.44211C39.5071 8.37249 39.4739 8.30651 39.4125 8.18396L39.1544 7.92777C35.9989 4.79155 32.3793 2.4883 28.1146 1.17931L27.7138 1.05858C25.7339 0.448419 23.7521 0.181146 21.6844 0.194835ZM33.6622 11.0405C34.0452 10.4077 34.3913 9.82033 34.5912 9.10117C26.8221 3.24605 14.9218 1.80734 7.34234 9.10117V9.4923C7.48263 9.70286 7.62174 9.91459 7.75238 10.1313L7.91365 10.4065L8.0894 10.7057L8.27128 11.016C8.44468 11.3116 8.61808 11.607 8.79122 11.9026L8.90687 12.0998C9.21723 11.9495 9.51899 11.7821 9.81077 11.5983C14.0589 8.89295 19.2359 7.79883 24.2231 8.62046L24.6825 8.71003C27.1045 9.16049 29.158 9.98225 31.3151 11.1652C31.4903 11.2615 31.6656 11.3573 31.8414 11.4528C32.1615 11.6258 32.481 11.7995 32.7999 11.9745L33.0267 12.0998C33.1775 11.8504 33.3277 11.6005 33.4774 11.3502L33.6622 11.0405Z" fill="#CC0000"/>
<path d="M19.7281 23.1821H23.6395V35.3072H19.7281V23.1821Z" fill="white"/>
<path d="M23.6395 16.5326C23.7698 16.663 23.7698 16.663 23.7846 17.0489L23.7825 17.5599L23.782 17.8312C23.7812 18.1181 23.7796 18.4051 23.7779 18.6921L23.7761 19.2745C23.7746 19.7512 23.7725 20.228 23.7698 20.7047C23.6284 20.6845 23.4869 20.6643 23.3455 20.6439C20.6388 20.2582 18.0361 20.313 15.7299 22.0409C13.9317 23.5082 12.4766 25.528 12.1663 27.8754C11.9501 30.3344 12.4458 32.6905 13.959 34.6796C15.5635 36.5682 17.6262 37.8421 20.1261 38.0693C21.3337 38.1386 22.4307 37.9702 23.6395 37.7841V41.9562C19.9125 42.4887 16.3022 41.9332 13.2222 39.6897C10.265 37.4068 8.66916 34.3209 8.04661 30.6791C7.88911 29.3074 7.92731 27.9139 8.25495 26.5717L8.35169 26.123C9.1526 22.7242 11.3747 19.9522 14.2849 18.0728C17.036 16.4428 20.4995 15.6772 23.6395 16.5326ZM54.628 35.2658C54.1065 35.2658 53.6307 35.1419 53.2004 34.8942C52.7832 34.6334 52.4442 34.2944 52.1835 33.8772C51.9358 33.447 51.8119 32.9711 51.8119 32.4496V24.0012C51.8119 23.4797 51.9358 23.0103 52.1835 22.5931C52.4442 22.1628 52.7832 21.8239 53.2004 21.5761C53.6307 21.3154 54.1065 21.185 54.628 21.185H63.0569C63.5784 21.185 64.0478 21.3154 64.465 21.5761C64.8953 21.8239 65.2408 22.1628 65.5015 22.5931C65.7623 23.0103 65.8926 23.4797 65.8926 24.0012V25.2137H63.0374V24.1381C63.0374 24.0989 63.0243 24.0729 62.9983 24.0598C62.9852 24.0338 62.9592 24.0207 62.92 24.0207H54.7454C54.7063 24.0207 54.6737 24.0338 54.6476 24.0598C54.6346 24.0729 54.628 24.0989 54.628 24.1381V32.3127C54.628 32.3518 54.6346 32.3844 54.6476 32.4105C54.6737 32.4235 54.7063 32.43 54.7454 32.43H62.92C62.9592 32.43 62.9852 32.4235 62.9983 32.4105C63.0243 32.3844 63.0374 32.3518 63.0374 32.3127V30.005H59.9279V27.1693H65.8926V32.4496C65.8926 32.9711 65.7623 33.447 65.5015 33.8772C65.2408 34.2944 64.8953 34.6334 64.465 34.8942C64.0478 35.1419 63.5784 35.2658 63.0569 35.2658H54.628ZM69.61 39.3922V36.5956H76.3961C76.4222 36.5956 76.4482 36.5826 76.4743 36.5565C76.5004 36.5304 76.5134 36.5043 76.5134 36.4783V35.2658H70.5487C70.0402 35.2658 69.5774 35.1419 69.1602 34.8942C68.7429 34.6334 68.404 34.2944 68.1432 33.8772C67.8955 33.46 67.7716 33.0037 67.7716 32.5083V23.962H70.5487V32.3714C70.5487 32.3975 70.5617 32.4235 70.5878 32.4496C70.6139 32.4757 70.6399 32.4887 70.666 32.4887H76.3961C76.4222 32.4887 76.4482 32.4757 76.4743 32.4496C76.5004 32.4235 76.5134 32.3975 76.5134 32.3714V23.962H79.2905V36.6347C79.2905 37.1432 79.1666 37.606 78.9189 38.0232C78.6842 38.4404 78.3517 38.7729 77.9215 39.0206C77.5043 39.2683 77.0415 39.3922 76.533 39.3922H69.61ZM81.3941 35.2658V23.9229H95.2402C95.7617 23.9229 96.231 24.0533 96.6482 24.3141C97.0654 24.5618 97.3979 24.8942 97.6456 25.3115C97.8933 25.7287 98.0172 26.185 98.0172 26.6804V35.2658H95.2402V26.8173C95.2402 26.7912 95.2271 26.7652 95.201 26.7391C95.188 26.713 95.1619 26.7 95.1228 26.7H91.2311C91.1919 26.7 91.1594 26.713 91.1333 26.7391C91.1202 26.7652 91.1137 26.7912 91.1137 26.8173V35.2658H88.3171V26.8173C88.3171 26.7912 88.3041 26.7652 88.278 26.7391C88.2519 26.713 88.2259 26.7 88.1998 26.7H84.2885C84.2624 26.7 84.2363 26.713 84.2102 26.7391C84.1972 26.7652 84.1907 26.7912 84.1907 26.8173V35.2658H81.3941ZM100.59 35.2658V21.185H113.575V24.0207H103.445V26.7978H111.6V29.653H103.445V35.2658H100.59ZM117.363 35.2658C116.867 35.2658 116.411 35.1419 115.994 34.8942C115.576 34.6334 115.237 34.2944 114.977 33.8772C114.729 33.46 114.605 33.0037 114.605 32.5083V20.1876H117.402V32.3714C117.402 32.3975 117.415 32.4235 117.441 32.4496C117.467 32.4757 117.493 32.4887 117.519 32.4887H119.748V35.2658H117.363ZM124.066 35.2658C123.571 35.2658 123.108 35.1419 122.678 34.8942C122.261 34.6334 121.928 34.2944 121.681 33.8772C121.433 33.46 121.309 33.0037 121.309 32.5083V23.9229H124.086V32.3714C124.086 32.3975 124.099 32.4235 124.125 32.4496C124.151 32.4757 124.177 32.4887 124.203 32.4887H129.914C129.94 32.4887 129.966 32.4757 129.992 32.4496C130.018 32.4235 130.031 32.3975 130.031 32.3714V23.9229H132.809V32.5083C132.809 33.0037 132.685 33.46 132.437 33.8772C132.189 34.2944 131.857 34.6334 131.44 34.8942C131.023 35.1419 130.56 35.2658 130.051 35.2658H124.066ZM137.167 35.2658C136.672 35.2658 136.215 35.1419 135.798 34.8942C135.381 34.6334 135.042 34.2944 134.781 33.8772C134.534 33.46 134.41 33.0037 134.41 32.5083V26.6804C134.41 26.185 134.534 25.7287 134.781 25.3115C135.042 24.8942 135.381 24.5618 135.798 24.3141C136.215 24.0533 136.672 23.9229 137.167 23.9229H143.152C143.66 23.9229 144.123 24.0533 144.54 24.3141C144.957 24.5618 145.29 24.8942 145.537 25.3115C145.785 25.7287 145.909 26.185 145.909 26.6804V31.0024H137.187V32.3714C137.187 32.3975 137.2 32.4235 137.226 32.4496C137.252 32.4757 137.278 32.4887 137.304 32.4887H145.909V35.2658H137.167ZM137.187 28.5187H143.132V26.8173C143.132 26.7912 143.119 26.7652 143.093 26.7391C143.067 26.713 143.041 26.7 143.015 26.7H137.304C137.278 26.7 137.252 26.713 137.226 26.7391C137.2 26.7652 137.187 26.7912 137.187 26.8173V28.5187ZM148.008 35.2658V23.9229H156.75C157.258 23.9229 157.721 24.0533 158.138 24.3141C158.556 24.5618 158.888 24.8942 159.136 25.3115C159.384 25.7287 159.507 26.185 159.507 26.6804V35.2658H156.73V26.8173C156.73 26.7912 156.717 26.7652 156.691 26.7391C156.678 26.713 156.652 26.7 156.613 26.7H150.903C150.876 26.7 150.85 26.713 150.824 26.7391C150.798 26.7652 150.785 26.7912 150.785 26.8173V35.2658H148.008ZM163.866 35.2658C163.37 35.2658 162.914 35.1419 162.497 34.8942C162.08 34.6334 161.741 34.2944 161.48 33.8772C161.232 33.46 161.108 33.0037 161.108 32.5083V26.6804C161.108 26.185 161.232 25.7287 161.48 25.3115C161.741 24.8942 162.08 24.5618 162.497 24.3141C162.914 24.0533 163.37 23.9229 163.866 23.9229H172.588V26.7H164.003C163.977 26.7 163.951 26.713 163.925 26.7391C163.899 26.7652 163.885 26.7912 163.885 26.8173V32.3714C163.885 32.3975 163.899 32.4235 163.925 32.4496C163.951 32.4757 163.977 32.4887 164.003 32.4887H172.608V35.2658H163.866ZM176.968 35.2658C176.472 35.2658 176.016 35.1419 175.599 34.8942C175.181 34.6334 174.842 34.2944 174.582 33.8772C174.334 33.46 174.21 33.0037 174.21 32.5083V26.6804C174.21 26.185 174.334 25.7287 174.582 25.3115C174.842 24.8942 175.181 24.5618 175.599 24.3141C176.016 24.0533 176.472 23.9229 176.968 23.9229H182.952C183.46 23.9229 183.923 24.0533 184.34 24.3141C184.758 24.5618 185.09 24.8942 185.338 25.3115C185.585 25.7287 185.709 26.185 185.709 26.6804V31.0024H176.987V32.3714C176.987 32.3975 177 32.4235 177.026 32.4496C177.052 32.4757 177.078 32.4887 177.104 32.4887H185.709V35.2658H176.968ZM176.987 28.5187H182.932V26.8173C182.932 26.7912 182.919 26.7652 182.893 26.7391C182.867 26.713 182.841 26.7 182.815 26.7H177.104C177.078 26.7 177.052 26.713 177.026 26.7391C177 26.7652 176.987 26.7912 176.987 26.8173V28.5187ZM187.636 35.2658V26.6804C187.636 26.185 187.76 25.7287 188.008 25.3115C188.269 24.8942 188.608 24.5618 189.025 24.3141C189.455 24.0533 189.918 23.9229 190.413 23.9229H196.691V26.7H190.531C190.505 26.7 190.479 26.713 190.452 26.7391C190.426 26.7652 190.413 26.7912 190.413 26.8173V35.2658H187.636Z" fill="white"/>
</g>
<defs>
<clipPath id="clip0_1_3029">
<rect width="197" height="50.0649" fill="white" transform="translate(0 0.194336)"/>
</clipPath>
</defs>
</svg>
